<svg version="1.1" id="Layer_1" xmlns="http://www.w3.org/2000/svg" xmlns:xlink="http://www.w3.org/1999/xlink" x="0px" y="0px"
	 width="100%" viewBox="0 0 256 256" enable-background="new 0 0 256 256" xml:space="preserve">
<path fill="#FEFEFE" opacity="1.000000" stroke="none" 
	d="
M151.000000,1.000000 
	C151.750000,1.000000 152.500000,1.000000 153.339203,1.280480 
	C154.342453,2.177920 155.179733,3.131592 156.182343,3.360193 
	C167.218369,5.876448 178.270569,8.217782 188.035263,14.476068 
	C192.852158,17.563261 198.091751,19.987537 202.936356,23.035587 
	C212.491028,29.047035 220.830292,36.490829 227.836395,45.363194 
	C231.174850,49.590935 234.769455,53.699013 237.500488,58.304577 
	C241.653275,65.307716 245.929947,72.412437 248.714401,80.002159 
	C251.437454,87.424484 252.250031,95.534561 254.141479,103.284119 
	C254.633942,105.301781 256.022827,107.100647 257.000000,109.000000 
	C257.000000,109.444443 257.000000,109.888893 256.690796,110.377777 
	C256.108002,110.937424 255.834381,111.452629 255.560776,111.967834 
	C256.040527,111.978554 256.520264,111.989281 257.000000,112.000000 
	C257.000000,123.687561 257.000000,135.375122 256.635620,147.229523 
	C255.514862,150.970856 254.895798,154.581177 253.974213,158.112564 
	C251.888000,166.106430 250.546127,174.457306 247.236908,181.925339 
	C243.632095,190.060471 238.407120,197.538269 233.392563,204.967911 
	C229.739838,210.379807 225.545258,215.493240 221.093857,220.275848 
	C217.983109,223.618011 214.073975,226.232346 210.442993,229.071411 
	C205.305038,233.088791 200.574371,238.016159 194.816315,240.771088 
	C182.515991,246.656174 170.014801,252.366974 156.187302,254.123810 
	C154.037750,254.396912 152.058167,256.007751 150.000000,257.000000 
	C137.979111,257.000000 125.958214,257.000000 113.757553,256.690796 
	C113.062576,256.108002 112.547371,255.834396 112.032166,255.560776 
	C112.021454,256.040527 112.010727,256.520264 112.000000,257.000000 
	C110.933327,257.000000 109.866661,257.000000 108.693802,256.682953 
	C107.628471,255.910416 106.711555,255.209778 105.703857,255.036194 
	C90.219345,252.369110 75.627808,247.441452 61.891575,239.585526 
	C49.442337,232.465622 38.930191,223.028931 29.632469,212.534988 
	C23.476219,205.586700 19.476227,196.667236 14.848642,188.440247 
	C8.693931,177.498306 4.941331,165.727966 3.585497,153.196991 
	C3.497203,152.380966 1.896948,151.728531 1.000001,151.000000 
	C1.000000,138.312439 1.000000,125.624878 1.319764,112.762016 
	C2.030201,110.935410 2.601438,109.303764 2.783655,107.629768 
	C4.633945,90.631516 10.442363,74.729767 19.008171,60.309326 
	C24.801971,50.555531 32.706573,41.978413 41.113705,33.805088 
	C53.541462,21.722954 68.793251,15.026502 83.593315,7.302180 
	C87.411324,5.309516 92.173889,5.033941 96.550552,4.231384 
	C100.631180,3.483112 104.777435,3.094683 108.882523,2.467437 
	C108.993820,2.450431 108.964012,1.509880 109.000000,1.000000 
	C122.020897,1.000000 135.041794,1.000000 148.240143,1.326047 
	C149.148361,2.027955 149.879105,2.403815 150.609848,2.779677 
	C150.739899,2.186454 150.869949,1.593227 151.000000,1.000000 
M153.742706,18.163177 
	C152.826523,18.158520 151.910339,18.153860 150.203217,17.892780 
	C146.128510,16.988949 142.092621,15.570147 137.973190,15.259479 
	C86.302666,11.362722 39.007301,41.838921 21.567247,90.597282 
	C13.160895,114.099495 12.347672,138.022079 19.956141,162.670288 
	C20.346087,163.445251 20.736031,164.220215 20.920998,165.695557 
	C21.518284,167.175308 22.115572,168.655060 22.845371,170.772888 
	C23.238514,171.512802 23.631655,172.252701 24.050980,173.715393 
	C25.195084,176.042740 26.339186,178.370102 27.568027,181.332428 
	C28.315952,182.579208 29.063875,183.825989 30.014536,185.724457 
	C31.200174,187.536026 32.385811,189.347595 33.778473,191.830505 
	C35.831017,194.271713 37.883564,196.712921 39.949284,199.834549 
	C41.063641,201.211502 42.177998,202.588455 43.446259,204.565948 
	C44.662140,205.699280 45.878021,206.832611 47.275848,208.581848 
	C48.557079,209.708832 49.838310,210.835831 51.378746,212.568298 
	C53.533916,214.074478 55.689087,215.580673 57.947971,217.779556 
	C59.933300,219.299271 61.918625,220.818970 64.189049,222.809448 
	C64.772003,223.249756 65.354965,223.690079 66.294182,224.704788 
	C68.523811,225.814972 70.753441,226.925156 73.380928,228.588547 
	C75.893593,229.811264 78.406250,231.033966 81.376068,232.763245 
	C84.247490,233.828079 87.118904,234.892929 90.614830,236.330063 
	C93.399132,237.173004 96.183434,238.015930 99.637413,239.273453 
	C102.751328,239.867920 105.865242,240.462387 109.566086,241.608704 
	C115.032837,242.056412 120.499580,242.504120 126.901276,242.990875 
	C130.063171,242.993866 133.270538,243.335266 136.375992,242.918076 
	C140.693802,242.338043 145.833527,242.419769 149.052597,240.069504 
	C162.402847,230.322342 175.605362,220.268661 187.994644,209.343750 
	C197.261963,201.171799 206.010391,192.114563 213.520447,182.324326 
	C222.244003,170.952179 229.222122,158.254807 237.223282,146.310440 
	C243.555771,136.857132 244.353348,126.723701 242.007034,115.147682 
	C240.988937,110.424767 239.970825,105.701851 238.999268,100.187927 
	C237.649414,96.454514 236.299576,92.721100 235.023224,88.207466 
	C233.743484,85.114243 232.463730,82.021019 231.008652,78.234756 
	C229.338379,75.493858 227.668106,72.752953 225.479889,69.571266 
	C224.279907,67.718811 223.079910,65.866356 221.745743,63.345776 
	C219.887863,61.125332 218.029984,58.904892 216.158478,56.142021 
	C215.860443,55.721790 215.562408,55.301559 215.050430,54.235210 
	C213.377563,52.798782 211.704712,51.362354 209.978485,49.240459 
	C207.654785,47.145790 205.331070,45.051121 202.497574,42.579037 
	C201.311661,41.445328 200.125748,40.311623 198.603821,38.634315 
	C197.371506,37.817970 196.139191,37.001621 194.512100,35.634003 
	C193.076401,35.057507 191.640686,34.481010 190.040619,33.192123 
	C187.353027,31.538353 184.665451,29.884583 181.405655,27.769333 
	C179.279831,26.819059 177.154007,25.868784 174.546829,24.373293 
	C172.389984,23.852184 170.233139,23.331074 167.749985,22.214277 
	C166.164124,21.571592 164.578278,20.928909 162.316223,19.958492 
	C160.876144,19.659538 159.436050,19.360586 157.222626,18.911369 
	C156.177963,18.862644 155.133301,18.813921 153.742706,18.163177 
z"/>
<path fill="#000000" opacity="1.000000" stroke="none" 
	d="
M150.468658,257.000000 
	C152.058167,256.007751 154.037750,254.396912 156.187302,254.123810 
	C170.014801,252.366974 182.515991,246.656174 194.816315,240.771088 
	C200.574371,238.016159 205.305038,233.088791 210.442993,229.071411 
	C214.073975,226.232346 217.983109,223.618011 221.093857,220.275848 
	C225.545258,215.493240 229.739838,210.379807 233.392563,204.967911 
	C238.407120,197.538269 243.632095,190.060471 247.236908,181.925339 
	C250.546127,174.457306 251.888000,166.106430 253.974213,158.112564 
	C254.895798,154.581177 255.514862,150.970856 256.635620,147.698181 
	C257.000000,184.259598 257.000000,220.519211 257.000000,257.000000 
	C221.646072,257.000000 186.291702,257.000000 150.468658,257.000000 
z"/>
<path fill="#000000" opacity="1.000000" stroke="none" 
	d="
M1.000001,151.468658 
	C1.896948,151.728531 3.497203,152.380966 3.585497,153.196991 
	C4.941331,165.727966 8.693931,177.498306 14.848642,188.440247 
	C19.476227,196.667236 23.476219,205.586700 29.632469,212.534988 
	C38.930191,223.028931 49.442337,232.465622 61.891575,239.585526 
	C75.627808,247.441452 90.219345,252.369110 105.703857,255.036194 
	C106.711555,255.209778 107.628471,255.910416 108.293808,256.682953 
	C72.406731,257.000000 36.813465,257.000000 1.000000,257.000000 
	C1.000000,221.979416 1.000000,186.958359 1.000001,151.468658 
z"/>
<path fill="#000000" opacity="1.000000" stroke="none" 
	d="
M257.000000,108.531342 
	C256.022827,107.100647 254.633942,105.301781 254.141479,103.284119 
	C252.250031,95.534561 251.437454,87.424484 248.714401,80.002159 
	C245.929947,72.412437 241.653275,65.307716 237.500488,58.304577 
	C234.769455,53.699013 231.174850,49.590935 227.836395,45.363194 
	C220.830292,36.490829 212.491028,29.047035 202.936356,23.035587 
	C198.091751,19.987537 192.852158,17.563261 188.035263,14.476068 
	C178.270569,8.217782 167.218369,5.876448 156.182343,3.360193 
	C155.179733,3.131592 154.342453,2.177920 153.714203,1.280480 
	C188.262009,1.000000 222.524002,1.000000 257.000000,1.000000 
	C257.000000,36.687275 257.000000,72.374977 257.000000,108.531342 
z"/>
<path fill="#000000" opacity="1.000000" stroke="none" 
	d="
M108.531342,1.000000 
	C108.964012,1.509880 108.993820,2.450431 108.882523,2.467437 
	C104.777435,3.094683 100.631180,3.483112 96.550552,4.231384 
	C92.173889,5.033941 87.411324,5.309516 83.593315,7.302180 
	C68.793251,15.026502 53.541462,21.722954 41.113705,33.805088 
	C32.706573,41.978413 24.801971,50.555531 19.008171,60.309326 
	C10.442363,74.729767 4.633945,90.631516 2.783655,107.629768 
	C2.601438,109.303764 2.030201,110.935410 1.319764,112.293358 
	C1.000000,75.074051 1.000000,38.148109 1.000000,1.000000 
	C36.687252,1.000000 72.374969,1.000000 108.531342,1.000000 
z"/>
<path fill="#000000" opacity="1.000000" stroke="none" 
	d="
M150.666672,1.000000 
	C150.869949,1.593227 150.739899,2.186454 150.609848,2.779677 
	C149.879105,2.403815 149.148361,2.027955 148.708801,1.326047 
	C149.444443,1.000000 149.888901,1.000000 150.666672,1.000000 
z"/>
<path fill="#000000" opacity="1.000000" stroke="none" 
	d="
M257.000000,111.750000 
	C256.520264,111.989281 256.040527,111.978554 255.560776,111.967834 
	C255.834381,111.452629 256.108002,110.937424 256.690796,110.711105 
	C257.000000,111.000000 257.000000,111.500000 257.000000,111.750000 
z"/>
<path fill="#000000" opacity="1.000000" stroke="none" 
	d="
M112.250000,257.000000 
	C112.010727,256.520264 112.021454,256.040527 112.032166,255.560776 
	C112.547371,255.834396 113.062576,256.108002 113.288895,256.690796 
	C113.000000,257.000000 112.500000,257.000000 112.250000,257.000000 
z"/>
<path fill="#010101" opacity="1.000000" stroke="none" 
	d="
M20.030907,161.998627 
	C12.347672,138.022079 13.160895,114.099495 21.567247,90.597282 
	C39.007301,41.838921 86.302666,11.362722 137.973190,15.259479 
	C142.092621,15.570147 146.128510,16.988949 150.600220,18.476086 
	C150.665131,24.349207 150.134476,29.635468 150.039703,34.929531 
	C149.796463,48.517174 146.753326,61.566753 141.859558,74.087128 
	C133.114990,96.459549 119.597549,115.506126 100.818611,130.729523 
	C84.144539,144.246582 65.563766,153.762054 44.474422,158.024841 
	C36.389172,159.659088 28.182335,160.691788 20.030907,161.998627 
z"/>
<path fill="#7B7B7B" opacity="1.000000" stroke="none" 
	d="
M203.007370,42.956451 
	C205.331070,45.051121 207.654785,47.145790 209.988144,50.022507 
	C207.541351,63.094826 206.008423,75.663010 202.413040,87.610542 
	C196.956741,105.741951 188.632431,122.744476 177.438034,138.155167 
	C172.288696,145.243958 167.667038,153.066193 161.241653,158.803864 
	C148.472473,170.206314 136.260147,182.251740 121.067604,190.971069 
	C107.976845,198.484161 94.964851,205.895218 80.724442,210.841965 
	C73.273682,213.430145 65.481979,215.036880 57.844261,217.086853 
	C55.689087,215.580673 53.533916,214.074478 51.648453,212.266968 
	C52.897659,211.829132 53.901665,211.787567 54.852978,211.541931 
	C68.605797,207.990738 82.066658,203.857056 94.816330,197.241837 
	C113.303627,187.649689 131.080856,177.167953 145.999908,162.457962 
	C161.216858,147.454254 174.044632,130.778961 183.329269,111.293991 
	C193.701080,89.527435 200.487701,66.899521 203.007370,42.956451 
z"/>
<path fill="#4C4C4C" opacity="1.000000" stroke="none" 
	d="
M39.936104,199.154144 
	C37.883564,196.712921 35.831017,194.271713 34.151192,191.450287 
	C48.048431,190.290970 60.902142,186.645432 73.531372,181.999374 
	C92.103149,175.167160 108.990463,165.236221 123.863258,152.379562 
	C139.371674,138.973450 152.019028,123.076485 161.879700,104.869156 
	C174.876404,80.871292 180.981537,55.271713 181.977859,28.230810 
	C184.665451,29.884583 187.353027,31.538353 189.804962,33.783051 
	C189.047226,36.272869 188.161133,38.152622 188.060150,40.073643 
	C187.182098,56.775757 183.307709,72.888206 177.183075,88.291054 
	C165.441681,117.819603 147.626068,142.977203 122.114212,162.497589 
	C99.691727,179.654129 74.994591,191.355316 47.104515,196.217026 
	C44.619881,196.650146 42.321167,198.149826 39.936104,199.154144 
z"/>
<path fill="#3D3D3D" opacity="1.000000" stroke="none" 
	d="
M181.691757,28.000071 
	C180.981537,55.271713 174.876404,80.871292 161.879700,104.869156 
	C152.019028,123.076485 139.371674,138.973450 123.863258,152.379562 
	C108.990463,165.236221 92.103149,175.167160 73.531372,181.999374 
	C60.902142,186.645432 48.048431,190.290970 34.047676,191.114624 
	C32.385811,189.347595 31.200174,187.536026 30.349350,185.372162 
	C43.360363,182.081680 56.280277,179.923035 68.664558,176.051163 
	C99.125290,166.527802 123.379456,147.472046 142.387695,122.519150 
	C164.138382,93.966118 175.343002,61.195923 175.028183,24.918510 
	C177.154007,25.868784 179.279831,26.819059 181.691757,28.000071 
z"/>
<path fill="#EAEAEA" opacity="1.000000" stroke="none" 
	d="
M242.017990,115.998772 
	C244.353348,126.723701 243.555771,136.857132 237.223282,146.310440 
	C229.222122,158.254807 222.244003,170.952179 213.520447,182.324326 
	C206.010391,192.114563 197.261963,201.171799 187.994644,209.343750 
	C175.605362,220.268661 162.402847,230.322342 149.052597,240.069504 
	C145.833527,242.419769 140.693802,242.338043 136.375992,242.918076 
	C133.270538,243.335266 130.063171,242.993866 126.502411,242.633392 
	C126.681137,241.720001 127.181999,241.040665 127.847855,240.626740 
	C137.691437,234.507767 147.949936,228.966354 157.309631,222.183487 
	C167.197174,215.018143 176.666840,207.132828 185.506882,198.709656 
	C192.878677,191.685471 199.313553,183.620895 205.741623,175.675873 
	C217.247009,161.455276 226.867599,146.028732 234.457611,129.332840 
	C236.563736,124.699944 239.475723,120.433395 242.017990,115.998772 
z"/>
<path fill="#D8D8D8" opacity="1.000000" stroke="none" 
	d="
M242.012512,115.573227 
	C239.475723,120.433395 236.563736,124.699944 234.457611,129.332840 
	C226.867599,146.028732 217.247009,161.455276 205.741623,175.675873 
	C199.313553,183.620895 192.878677,191.685471 185.506882,198.709656 
	C176.666840,207.132828 167.197174,215.018143 157.309631,222.183487 
	C147.949936,228.966354 137.691437,234.507767 127.847855,240.626740 
	C127.181999,241.040665 126.681137,241.720001 126.034935,242.613861 
	C120.499580,242.504120 115.032837,242.056412 109.473633,241.046448 
	C116.853996,236.527405 124.307571,232.533768 131.803513,228.621292 
	C149.320709,219.478256 164.697342,207.371185 178.703964,193.629333 
	C191.143326,181.425095 202.236481,168.045349 211.616104,153.204010 
	C221.329666,137.834244 229.776947,121.950722 235.713882,104.742699 
	C236.215530,103.288704 237.846436,102.224319 238.952713,100.978928 
	C239.970825,105.701851 240.988937,110.424767 242.012512,115.573227 
z"/>
<path fill="#303030" opacity="1.000000" stroke="none" 
	d="
M174.787506,24.645905 
	C175.343002,61.195923 164.138382,93.966118 142.387695,122.519150 
	C123.379456,147.472046 99.125290,166.527802 68.664558,176.051163 
	C56.280277,179.923035 43.360363,182.081680 30.247982,185.046310 
	C29.063875,183.825989 28.315952,182.579208 27.786459,180.639801 
	C29.421665,179.295425 30.779287,178.326767 32.265915,178.049286 
	C37.459518,177.079941 42.790092,176.724319 47.903198,175.464249 
	C72.217239,169.472290 94.425758,159.310333 113.748726,142.955917 
	C129.857468,129.321915 142.919235,113.319534 152.065704,94.474304 
	C162.990051,71.965897 168.790451,48.049179 168.076294,22.809963 
	C170.233139,23.331074 172.389984,23.852184 174.787506,24.645905 
z"/>
<path fill="#A1A1A1" opacity="1.000000" stroke="none" 
	d="
M80.918915,232.256683 
	C78.406250,231.033966 75.893593,229.811264 73.393127,228.022949 
	C82.938377,223.684357 92.669250,220.341019 101.968346,216.059814 
	C132.957367,201.792740 159.663071,182.127838 179.733826,154.004562 
	C189.097809,140.883713 198.563339,127.837433 204.490219,112.779243 
	C209.694626,99.556610 213.970581,85.969025 218.683182,72.551956 
	C219.690063,69.685310 220.811340,66.858864 221.879929,64.013901 
	C223.079910,65.866356 224.279907,67.718811 225.728851,70.189041 
	C224.721634,75.771370 223.651962,80.792061 222.177765,85.691017 
	C214.859177,110.011742 204.063583,132.598877 188.984589,153.152481 
	C175.013763,172.195618 158.493866,188.622559 139.195724,202.114578 
	C123.526985,213.069153 106.668991,221.947296 88.561516,228.332764 
	C85.885506,229.276428 83.460205,230.931015 80.918915,232.256683 
z"/>
<path fill="#C7C7C7" opacity="1.000000" stroke="none" 
	d="
M238.975983,100.583427 
	C237.846436,102.224319 236.215530,103.288704 235.713882,104.742699 
	C229.776947,121.950722 221.329666,137.834244 211.616104,153.204010 
	C202.236481,168.045349 191.143326,181.425095 178.703964,193.629333 
	C164.697342,207.371185 149.320709,219.478256 131.803513,228.621292 
	C124.307571,232.533768 116.853996,236.527405 109.180161,240.770523 
	C105.865242,240.462387 102.751328,239.867920 99.361298,238.719452 
	C99.907951,237.440155 100.613365,236.441254 101.571045,236.030502 
	C116.391235,229.674118 130.607712,222.312943 143.951401,213.128464 
	C167.335403,197.033279 186.909485,177.227722 202.967987,153.946304 
	C216.244156,134.698746 225.832886,113.605949 233.010300,91.385117 
	C233.305130,90.472389 234.287628,89.781776 234.949738,88.987686 
	C236.299576,92.721100 237.649414,96.454514 238.975983,100.583427 
z"/>
<path fill="#595959" opacity="1.000000" stroke="none" 
	d="
M39.942696,199.494354 
	C42.321167,198.149826 44.619881,196.650146 47.104515,196.217026 
	C74.994591,191.355316 99.691727,179.654129 122.114212,162.497589 
	C147.626068,142.977203 165.441681,117.819603 177.183075,88.291054 
	C183.307709,72.888206 187.182098,56.775757 188.060150,40.073643 
	C188.161133,38.152622 189.047226,36.272869 189.887146,34.139244 
	C191.640686,34.481010 193.076401,35.057507 194.546936,36.270824 
	C193.748871,42.443668 192.890930,47.976063 192.087067,53.516304 
	C186.707565,90.591209 170.520615,122.397057 144.940506,149.506287 
	C124.521812,171.145584 100.086151,186.651596 71.785042,195.864304 
	C62.402657,198.918503 52.796307,201.284668 43.292358,203.965408 
	C42.177998,202.588455 41.063641,201.211502 39.942696,199.494354 
z"/>
<path fill="#B9B9B9" opacity="1.000000" stroke="none" 
	d="
M234.986481,88.597580 
	C234.287628,89.781776 233.305130,90.472389 233.010300,91.385117 
	C225.832886,113.605949 216.244156,134.698746 202.967987,153.946304 
	C186.909485,177.227722 167.335403,197.033279 143.951401,213.128464 
	C130.607712,222.312943 116.391235,229.674118 101.571045,236.030502 
	C100.613365,236.441254 99.907951,237.440155 99.026459,238.512161 
	C96.183434,238.015930 93.399132,237.173004 90.347382,235.789627 
	C91.461380,234.187195 92.717598,232.879501 94.243866,232.101639 
	C107.955231,225.113663 122.239555,219.081894 135.341904,211.104385 
	C157.796326,197.432755 176.414841,179.179703 192.156601,158.168442 
	C206.997711,138.359360 218.228592,116.610054 225.605927,92.904900 
	C227.092026,88.129707 229.305740,83.580948 231.183975,78.927795 
	C232.463730,82.021019 233.743484,85.114243 234.986481,88.597580 
z"/>
<path fill="#969696" opacity="1.000000" stroke="none" 
	d="
M221.812836,63.679840 
	C220.811340,66.858864 219.690063,69.685310 218.683182,72.551956 
	C213.970581,85.969025 209.694626,99.556610 204.490219,112.779243 
	C198.563339,127.837433 189.097809,140.883713 179.733826,154.004562 
	C159.663071,182.127838 132.957367,201.792740 101.968346,216.059814 
	C92.669250,220.341019 82.938377,223.684357 73.194191,227.746368 
	C70.753441,226.925156 68.523811,225.814972 66.316978,224.120514 
	C71.277328,221.669907 76.157913,219.632263 81.162689,217.968140 
	C98.924904,212.062088 115.819405,204.107925 130.666016,192.867325 
	C143.955368,182.805710 156.922974,171.914688 168.193527,159.693634 
	C182.226120,144.477585 192.990433,126.679947 201.273712,107.520508 
	C208.342300,91.170692 213.556732,74.318947 216.172104,56.684448 
	C218.029984,58.904892 219.887863,61.125332 221.812836,63.679840 
z"/>
<path fill="#646464" opacity="1.000000" stroke="none" 
	d="
M43.369308,204.265686 
	C52.796307,201.284668 62.402657,198.918503 71.785042,195.864304 
	C100.086151,186.651596 124.521812,171.145584 144.940506,149.506287 
	C170.520615,122.397057 186.707565,90.591209 192.087067,53.516304 
	C192.890930,47.976063 193.748871,42.443668 194.744324,36.546463 
	C196.139191,37.001621 197.371506,37.817970 198.786499,39.337898 
	C198.965073,41.372627 199.102921,42.721905 198.935486,44.032181 
	C196.620117,62.151352 192.373199,79.676636 185.403625,96.706505 
	C176.605820,118.203522 164.177383,137.207550 148.339355,153.886551 
	C135.788452,167.103897 121.391846,178.219925 105.366325,187.190262 
	C87.080223,197.425949 67.637566,204.181213 47.093903,207.965942 
	C45.878021,206.832611 44.662140,205.699280 43.369308,204.265686 
z"/>
<path fill="#212121" opacity="1.000000" stroke="none" 
	d="
M167.913147,22.512119 
	C168.790451,48.049179 162.990051,71.965897 152.065704,94.474304 
	C142.919235,113.319534 129.857468,129.321915 113.748726,142.955917 
	C94.425758,159.310333 72.217239,169.472290 47.903198,175.464249 
	C42.790092,176.724319 37.459518,177.079941 32.265915,178.049286 
	C30.779287,178.326767 29.421665,179.295425 27.744091,180.322296 
	C26.339186,178.370102 25.195084,176.042740 24.479841,173.353745 
	C36.721348,170.761032 48.853092,169.567169 60.271355,166.054230 
	C77.123230,160.869568 92.501717,152.452240 106.534622,141.411148 
	C126.429230,125.758057 140.952454,106.271729 151.066605,83.258492 
	C159.891159,63.179596 162.312332,41.900864 162.992416,20.286228 
	C164.578278,20.928909 166.164124,21.571592 167.913147,22.512119 
z"/>
<path fill="#ABABAB" opacity="1.000000" stroke="none" 
	d="
M231.096313,78.581276 
	C229.305740,83.580948 227.092026,88.129707 225.605927,92.904900 
	C218.228592,116.610054 206.997711,138.359360 192.156601,158.168442 
	C176.414841,179.179703 157.796326,197.432755 135.341904,211.104385 
	C122.239555,219.081894 107.955231,225.113663 94.243866,232.101639 
	C92.717598,232.879501 91.461380,234.187195 90.035126,235.603485 
	C87.118904,234.892929 84.247490,233.828079 81.147491,232.509964 
	C83.460205,230.931015 85.885506,229.276428 88.561516,228.332764 
	C106.668991,221.947296 123.526985,213.069153 139.195724,202.114578 
	C158.493866,188.622559 175.013763,172.195618 188.984589,153.152481 
	C204.063583,132.598877 214.859177,110.011742 222.177765,85.691017 
	C223.651962,80.792061 224.721634,75.771370 225.987823,70.409431 
	C227.668106,72.752953 229.338379,75.493858 231.096313,78.581276 
z"/>
<path fill="#1A1A1A" opacity="1.000000" stroke="none" 
	d="
M162.654327,20.122360 
	C162.312332,41.900864 159.891159,63.179596 151.066605,83.258492 
	C140.952454,106.271729 126.429230,125.758057 106.534622,141.411148 
	C92.501717,152.452240 77.123230,160.869568 60.271355,166.054230 
	C48.853092,169.567169 36.721348,170.761032 24.466751,172.992355 
	C23.631655,172.252701 23.238514,171.512802 23.147400,170.290588 
	C26.813833,169.173462 30.173744,168.513657 33.543385,167.907990 
	C52.051083,164.581284 69.815887,159.608124 85.967735,149.212738 
	C99.856239,140.274048 113.004578,130.525146 123.969330,118.291061 
	C142.189423,97.961761 150.865173,72.969749 156.858963,46.870445 
	C156.969360,46.389694 156.966537,45.879444 156.985794,45.381771 
	C157.325363,36.608501 157.660156,27.835047 157.995972,19.061630 
	C159.436050,19.360586 160.876144,19.659538 162.654327,20.122360 
z"/>
<path fill="#6C6C6C" opacity="1.000000" stroke="none" 
	d="
M47.184875,208.273895 
	C67.637566,204.181213 87.080223,197.425949 105.366325,187.190262 
	C121.391846,178.219925 135.788452,167.103897 148.339355,153.886551 
	C164.177383,137.207550 176.605820,118.203522 185.403625,96.706505 
	C192.373199,79.676636 196.620117,62.151352 198.935486,44.032181 
	C199.102921,42.721905 198.965073,41.372627 198.954498,39.609699 
	C200.125748,40.311623 201.311661,41.445328 202.752472,42.767746 
	C200.487701,66.899521 193.701080,89.527435 183.329269,111.293991 
	C174.044632,130.778961 161.216858,147.454254 145.999908,162.457962 
	C131.080856,177.167953 113.303627,187.649689 94.816330,197.241837 
	C82.066658,203.857056 68.605797,207.990738 54.852978,211.541931 
	C53.901665,211.787567 52.897659,211.829132 51.518852,211.964233 
	C49.838310,210.835831 48.557079,209.708832 47.184875,208.273895 
z"/>
<path fill="#868686" opacity="1.000000" stroke="none" 
	d="
M57.896118,217.433212 
	C65.481979,215.036880 73.273682,213.430145 80.724442,210.841965 
	C94.964851,205.895218 107.976845,198.484161 121.067604,190.971069 
	C136.260147,182.251740 148.472473,170.206314 161.241653,158.803864 
	C167.667038,153.066193 172.288696,145.243958 177.438034,138.155167 
	C188.632431,122.744476 196.956741,105.741951 202.413040,87.610542 
	C206.008423,75.663010 207.541351,63.094826 210.014832,50.365238 
	C211.704712,51.362354 213.377563,52.798782 214.829407,54.766800 
	C214.055084,56.657684 213.308701,57.972309 212.982147,59.384045 
	C211.606201,65.332687 210.617065,71.381813 209.008713,77.263542 
	C204.625839,93.291641 198.528625,108.626831 190.459259,123.212814 
	C182.629532,137.365646 173.232986,150.352890 162.261963,162.152527 
	C146.441757,179.167603 128.366013,193.475342 107.512177,203.765137 
	C96.742798,209.079010 85.130249,212.669785 73.969635,217.213440 
	C70.494812,218.628098 67.252640,220.614197 63.903954,222.338684 
	C61.918625,220.818970 59.933300,219.299271 57.896118,217.433212 
z"/>
<path fill="#0F0F0F" opacity="1.000000" stroke="none" 
	d="
M157.609299,18.986500 
	C157.660156,27.835047 157.325363,36.608501 156.985794,45.381771 
	C156.966537,45.879444 156.969360,46.389694 156.858963,46.870445 
	C150.865173,72.969749 142.189423,97.961761 123.969330,118.291061 
	C113.004578,130.525146 99.856239,140.274048 85.967735,149.212738 
	C69.815887,159.608124 52.051083,164.581284 33.543385,167.907990 
	C30.173744,168.513657 26.813833,169.173462 23.081142,169.971542 
	C22.115572,168.655060 21.518284,167.175308 21.434448,165.335464 
	C27.674440,164.253098 33.471134,163.880142 39.115097,162.746658 
	C60.819138,158.387787 80.790123,150.161209 98.660301,136.737823 
	C118.802765,121.607597 133.500702,102.415298 143.286758,79.400192 
	C151.510330,60.059788 154.953232,39.772480 154.088638,18.765196 
	C155.133301,18.813921 156.177963,18.862644 157.609299,18.986500 
z"/>
<path fill="#090909" opacity="1.000000" stroke="none" 
	d="
M153.915680,18.464188 
	C154.953232,39.772480 151.510330,60.059788 143.286758,79.400192 
	C133.500702,102.415298 118.802765,121.607597 98.660301,136.737823 
	C80.790123,150.161209 60.819138,158.387787 39.115097,162.746658 
	C33.471134,163.880142 27.674440,164.253098 21.536938,164.985275 
	C20.736031,164.220215 20.346087,163.445251 19.993523,162.334457 
	C28.182335,160.691788 36.389172,159.659088 44.474422,158.024841 
	C65.563766,153.762054 84.144539,144.246582 100.818611,130.729523 
	C119.597549,115.506126 133.114990,96.459549 141.859558,74.087128 
	C146.753326,61.566753 149.796463,48.517174 150.039703,34.929531 
	C150.134476,29.635468 150.665131,24.349207 150.995697,18.604296 
	C151.910339,18.153860 152.826523,18.158520 153.915680,18.464188 
z"/>
<path fill="#8C8C8C" opacity="1.000000" stroke="none" 
	d="
M64.046501,222.574066 
	C67.252640,220.614197 70.494812,218.628098 73.969635,217.213440 
	C85.130249,212.669785 96.742798,209.079010 107.512177,203.765137 
	C128.366013,193.475342 146.441757,179.167603 162.261963,162.152527 
	C173.232986,150.352890 182.629532,137.365646 190.459259,123.212814 
	C198.528625,108.626831 204.625839,93.291641 209.008713,77.263542 
	C210.617065,71.381813 211.606201,65.332687 212.982147,59.384045 
	C213.308701,57.972309 214.055084,56.657684 214.936371,55.089859 
	C215.562408,55.301559 215.860443,55.721790 216.165283,56.413231 
	C213.556732,74.318947 208.342300,91.170692 201.273712,107.520508 
	C192.990433,126.679947 182.226120,144.477585 168.193527,159.693634 
	C156.922974,171.914688 143.955368,182.805710 130.666016,192.867325 
	C115.819405,204.107925 98.924904,212.062088 81.162689,217.968140 
	C76.157913,219.632263 71.277328,221.669907 66.138847,223.833313 
	C65.354965,223.690079 64.772003,223.249756 64.046501,222.574066 
z"/>
</svg>